PathFileType	4	(X/Y/Z)	Walk9.trc
DataRate	CameraRate	NumFrames	NumMarkers	Units	OrigDataRate	OrigDataStartFrame	OrigNumFrames
200.000000	200.000000	5	59	mm	200.000000	213	528
Frame#	Times		LFHD		RBHD		C7		T10		CLAV		STRN		RBack		LASI		RASI		RPSI		RACR1		RUA1		RElbow		RFA1		RWRR		RWRU		RCAR		LACR1		LUA1		LFA1		LWRR		LCAR		RTH1		RTH3		RTH2		RTH4		RLFC		LTH1		LTH3		LTH2		LTH4		LLFC		LTB1		LTB3		LTB2		LTB4		LLMAL		LMMAL		LMT1		LMT5		LToe		LPSI		RFHD		LElbowM		LElbow		LBHD		RMMAL		LWRU		RTB4		RTB2		RTB1		RTB3		RToe		RCAL		RElbowM		RMT1		RLMAL		RMT5		LCAL
			X1	Y1	Z1	X2	Y2	Z2	X3	Y3	Z3	X4	Y4	Z4	X5	Y5	Z5	X6	Y6	Z6	X7	Y7	Z7	X8	Y8	Z8	X9	Y9	Z9	X10	Y10	Z10	X11	Y11	Z11	X12	Y12	Z12	X13	Y13	Z13	X14	Y14	Z14	X15	Y15	Z15	X16	Y16	Z16	X17	Y17	Z17	X18	Y18	Z18	X19	Y19	Z19	X20	Y20	Z20	X21	Y21	Z21	X22	Y22	Z22	X23	Y23	Z23	X24	Y24	Z24	X25	Y25	Z25	X26	Y26	Z26	X27	Y27	Z27	X28	Y28	Z28	X29	Y29	Z29	X30	Y30	Z30	X31	Y31	Z31	X32	Y32	Z32	X33	Y33	Z33	X34	Y34	Z34	X35	Y35	Z35	X36	Y36	Z36	X37	Y37	Z37	X38	Y38	Z38	X39	Y39	Z39	X40	Y40	Z40	X41	Y41	Z41	X42	Y42	Z42	X43	Y43	Z43	X44	Y44	Z44	X45	Y45	Z45	X46	Y46	Z46	X47	Y47	Z47	X48	Y48	Z48	X49	Y49	Z49	X50	Y50	Z50	X51	Y51	Z51	X52	Y52	Z52	X53	Y53	Z53	X54	Y54	Z54	X55	Y55	Z55	X56	Y56	Z56	X57	Y57	Z57	X58	Y58	Z58	X59	Y59	Z59

213	1.065	-621.79	1569.9	-59.426	-781.5	1531.3	55.331	-782.05	1403.4	-17.768	-813.37	1118.7	-18.268	-654.5	1326.9	-27.801	-574.38	1102.6	-23.367	-819.49	1298.8	82.487	-626.12	920.54	-146.77	-637.66	931.13	127.71	-844.06	967.14	40.428	-699.11	1339	147.91	-683.95	1130.6	213.87	-679.36	1023.2	241.65	-568.63	914.71	219.87	-514.12	834.65	165.33	-547.65	803.49	222.86	-488.7	790.09	209	-726.85	1338.1	-193.75	-783.44	1136.1	-237.3	-794.7	894.77	-268.65	-792.27	774.79	-234.58	-808.42	733.65	-276.86	-755.56	731.44	160.25	-789.19	550.2	117.48	-706.95	638.84	108.53	-773.09	640.84	136.87	-824.46	448.04	100.14	-688.12	721.21	-188.55	-626.53	547.88	-153.06	-596.23	656.84	-131.98	-656.56	630.38	-172.92	-595.6	448.77	-137.6	-528.93	369.38	-61.947	-479.17	187.96	-63.885	-531.97	271.45	-132.5	-501.87	277.58	-66.957	-479.11	64.591	-106.7	-463.31	86.646	-28.487	-328.22	84.857	-76.79	-362.81	49.649	-136.01	-294.58	92.272	-101.1	-840.97	954.14	-73.5	-613.18	1574	13.23	-833.64	1009.9	-177.58	-823.73	1022.7	-246.56	-791.07	1535	-71.702	-1013.2	100.89	-27.476	-847.87	784.08	-279.05	-900.63	245.5	15.269	-913.47	251.06	84.975	-848.35	322.68	21.702	-951.83	169.12	7.5064	-851.39	23.449	49.427	-1090.9	70.989	-0.64328	-708.33	994.52	164.74	-893.2	34.691	10.009	-1039.8	90.768	50.13	-945.78	20.718	90.453	-511.02	21.599	-47.366
214	1.07	-615.79	1569.2	-60.207	-775.45	1530.3	54.504	-775.75	1402.5	-18.614	-806.92	1117.9	-18.888	-648.13	1326	-28.591	-568.12	1101.8	-23.877	-813.2	1298	81.655	-619.43	919.57	-146.59	-631.63	930.31	127.59	-837.8	966.38	39.942	-692.8	1338.2	147.14	-677.85	1129.9	213.27	-673.52	1022.5	241.25	-562.92	913.79	219.69	-508.47	833.62	165.28	-542.07	802.59	222.84	-483.12	789.14	209.06	-720.51	1337	-194.55	-777.42	1135.1	-237.86	-789.58	893.77	-269.03	-787.64	773.74	-234.97	-804.08	732.73	-277.26	-750.02	730.68	160	-784.39	549.54	117.37	-701.82	637.87	108.3	-767.92	640.14	136.71	-820.19	447.58	99.99	-680.8	721.27	-188.52	-618.9	548.09	-152.9	-589	657.09	-131.5	-649.1	630.53	-172.75	-588.19	448.67	-137.49	-522.48	368.81	-61.559	-473.91	187.18	-63.331	-525.77	271.01	-132.11	-495.97	276.88	-66.47	-474.8	63.984	-106.28	-458.96	85.687	-28.015	-323.77	82.159	-76.053	-358.66	47.244	-135.5	-289.84	88.796	-100.16	-834.59	953.61	-74.041	-607.2	1573.4	12.448	-827.8	1009	-177.91	-817.96	1021.7	-246.9	-785	1534	-72.531	-1012.3	102.22	-26.939	-843.31	783.3	-279.27	-898.28	245.66	15.558	-911.11	251.51	85.229	-845.22	322.29	21.874	-950.29	169.83	7.9242	-851.4	23.438	49.382	-1090.3	73.25	-0.033813	-702.4	993.71	164.33	-893.19	34.607	10.012	-1039	92.409	50.657	-945.72	20.684	90.419	-507.63	21.846	-47.075
215	1.075	-609.76	1568.7	-61.005	-769.38	1529.4	53.654	-769.42	1401.8	-19.487	-800.44	1117.1	-19.496	-641.72	1325.3	-29.415	-561.83	1101	-24.412	-806.86	1297.3	80.798	-612.73	918.68	-146.44	-625.54	929.49	127.4	-831.51	965.68	39.506	-686.43	1337.5	146.33	-671.77	1129.2	212.64	-667.74	1021.8	240.81	-557.32	912.89	219.53	-502.93	832.59	165.25	-536.64	801.68	222.84	-477.69	788.17	209.14	-714.14	1336	-195.38	-771.34	1134.2	-238.44	-784.37	892.81	-269.41	-782.9	772.73	-235.36	-799.63	731.86	-277.66	-744.39	729.95	159.71	-779.43	548.87	117.24	-696.57	636.92	108.04	-762.62	639.44	136.51	-815.71	447.13	99.813	-673.41	721.48	-188.48	-611.19	548.45	-152.77	-581.67	657.49	-131.08	-641.57	630.83	-172.59	-580.72	448.7	-137.41	-516.11	368.28	-61.174	-468.99	186.37	-62.771	-519.75	270.62	-131.73	-490.28	276.19	-65.98	-471.02	63.388	-105.87	-455.14	84.689	-27.542	-319.84	79.133	-75.289	-355.09	44.648	-135.06	-285.6	84.895	-99.178	-828.2	953.18	-74.544	-601.2	1572.8	11.647	-821.89	1008.2	-178.25	-812.11	1020.8	-247.26	-778.9	1533.1	-73.38	-1011.4	103.66	-26.325	-838.65	782.56	-279.51	-895.77	245.88	15.875	-908.57	252.05	85.514	-841.9	321.93	22.05	-948.62	170.62	8.3971	-851.43	23.429	49.32	-1089.6	75.708	0.66397	-696.54	992.95	163.89	-893.2	34.519	10.019	-1038.1	94.193	51.257	-945.65	20.658	90.387	-504.89	22.174	-46.819
216	1.08	-603.71	1568.2	-61.819	-763.28	1528.6	52.782	-763.04	1401.1	-20.384	-793.94	1116.5	-20.087	-635.28	1324.6	-30.268	-555.51	1100.3	-24.972	-800.48	1296.6	79.922	-606.04	917.89	-146.35	-619.38	928.66	127.13	-825.2	965.02	39.123	-680.02	1336.8	145.5	-665.72	1128.6	211.99	-662.02	1021.3	240.35	-551.83	911.99	219.38	-497.52	831.55	165.24	-531.36	800.78	222.84	-472.42	787.18	209.26	-707.75	1335.1	-196.23	-765.2	1133.3	-239.03	-779.07	891.91	-269.81	-778.05	771.78	-235.76	-795.08	731.05	-278.07	-738.66	729.23	159.38	-774.29	548.21	117.07	-691.17	636.02	107.74	-757.18	638.75	136.28	-810.99	446.69	99.605	-665.99	721.83	-188.43	-603.42	548.95	-152.65	-574.27	658.04	-130.72	-633.99	631.27	-172.44	-573.19	448.85	-137.37	-509.81	367.8	-60.796	-464.39	185.56	-62.214	-513.88	270.3	-131.37	-484.79	275.52	-65.491	-467.74	62.828	-105.48	-451.8	83.682	-27.075	-316.41	75.857	-74.504	-352.06	41.946	-134.69	-281.82	80.668	-98.168	-821.83	952.86	-75.008	-595.18	1572.4	10.828	-815.91	1007.4	-178.6	-806.19	1020	-247.63	-772.78	1532.3	-74.251	-1010.3	105.23	-25.63	-833.88	781.88	-279.75	-893.09	246.17	16.223	-905.84	252.66	85.831	-838.38	321.6	22.229	-946.8	171.5	8.9265	-851.47	23.42	49.24	-1088.9	78.384	1.4514	-690.73	992.26	163.44	-893.22	34.424	10.031	-1037.1	96.13	51.933	-945.57	20.646	90.355	-502.7	22.577	-46.606
217	1.085	-597.64	1567.9	-62.648	-757.15	1527.8	51.888	-756.63	1400.4	-21.303	-787.43	1115.9	-20.656	-628.8	1324	-31.147	-549.16	1099.6	-25.555	-794.07	1296	79.03	-599.34	917.21	-146.3	-613.16	927.84	126.79	-818.86	964.42	38.794	-673.55	1336.2	144.65	-659.68	1128.1	211.32	-656.36	1020.7	239.86	-546.44	911.12	219.23	-492.22	830.5	165.26	-526.24	799.89	222.85	-467.3	786.17	209.4	-701.33	1334.2	-197.11	-759.01	1132.4	-239.64	-773.69	891.06	-270.22	-773.1	770.89	-236.16	-790.42	730.29	-278.49	-732.83	728.53	159.01	-768.96	547.55	116.88	-685.62	635.16	107.4	-751.6	638.06	136.01	-806.01	446.25	99.367	-658.56	722.32	-188.39	-595.62	549.6	-152.55	-566.82	658.73	-130.42	-626.4	631.85	-172.29	-565.64	449.12	-137.36	-503.6	367.38	-60.427	-460.09	184.78	-61.665	-508.17	270.05	-131.02	-479.49	274.89	-65.01	-464.89	62.319	-105.1	-448.91	82.693	-26.616	-313.41	72.42	-73.705	-349.5	39.227	-134.43	-278.46	76.227	-97.143	-815.47	952.66	-75.429	-589.14	1572	9.9928	-809.86	1006.7	-178.97	-800.18	1019.2	-248.01	-766.62	1531.6	-75.142	-1009.1	106.94	-24.852	-829	781.26	-279.99	-890.21	246.52	16.601	-902.89	253.36	86.18	-834.63	321.3	22.41	-944.81	172.49	9.5138	-851.53	23.409	49.141	-1087.9	81.295	2.3285	-684.98	991.65	162.95	-893.25	34.322	10.047	-1035.9	98.232	52.685	-945.46	20.655	90.324	-500.98	23.043	-46.437
